<?xml version="1.0" standalone="no"?>
<!DOCTYPE svg PUBLIC "-//W3C//DTD SVG 20010904//EN"
 "http://www.w3.org/TR/2001/REC-SVG-20010904/DTD/svg10.dtd">
<svg version="1.0" xmlns="http://www.w3.org/2000/svg"
 width="2816.000000pt" height="1536.000000pt" viewBox="0 0 2816.000000 1536.000000"
 preserveAspectRatio="xMidYMid meet">

<g transform="translate(0.000000,1536.000000) scale(0.100000,-0.100000)" stroke="none">

<!-- Left Arc (Teal) -->
<path fill="#114b5f" d="M13965 12543 c-469 -33 -935 -241 -1263 -566 -289 -284 -450 -579
-548 -1002 -36 -153 -47 -282 -41 -455 13 -347 96 -637 263 -921 131 -221 260
-372 475 -551 271 -226 693 -394 1079 -427 207 -19 510 17 688 81 l82 30 99
131 c156 208 201 266 211 272 6 3 10 10 10 15 0 5 -28 -8 -62 -29 -133 -81
-328 -163 -477 -201 -128 -32 -330 -53 -461 -46 -724 37 -1330 506 -1564 1208
-60 182 -70 255 -71 508 0 254 8 310 76 514 42 125 129 310 194 411 194 303
531 564 875 679 84 28 262 66 308 66 48 0 60 8 117 85 30 40 88 98 130 131 41
32 75 61 75 64 0 6 -124 8 -195 3z"/>

<!-- Right Arc (Orange) -->
<path transform="translate(28220, 0) scale(-1, 1)" fill="#d38c28" d="M13965 12543 c-469 -33 -935 -241 -1263 -566 -289 -284 -450 -579
-548 -1002 -36 -153 -47 -282 -41 -455 13 -347 96 -637 263 -921 131 -221 260
-372 475 -551 271 -226 693 -394 1079 -427 207 -19 510 17 688 81 l82 30 99
131 c156 208 201 266 211 272 6 3 10 10 10 15 0 5 -28 -8 -62 -29 -133 -81
-328 -163 -477 -201 -128 -32 -330 -53 -461 -46 -724 37 -1330 506 -1564 1208
-60 182 -70 255 -71 508 0 254 8 310 76 514 42 125 129 310 194 411 194 303
531 564 875 679 84 28 262 66 308 66 48 0 60 8 117 85 30 40 88 98 130 131 41
32 75 61 75 64 0 6 -124 8 -195 3z"/>

<!-- Left Tower (Teal) -->
<path fill="#114b5f" d="M14021 12030 c-8 -22 -20 -218 -21 -337 0 -37 -3 -42 -28 -48 -46
-10 -90 -42 -118 -87 -23 -36 -28 -57 -32 -128 -3 -64 -9 -90 -23 -105 -45
-50 -60 -110 -66 -267 -6 -147 -7 -150 -30 -159 -13 -5 -33 -9 -44 -9 -18 0
-20 4 -13 45 l6 45 -61 0 -61 0 -1 -47 c-1 -27 -1 -292 0 -589 0 -419 -2 -544
-12 -552 -6 -5 -70 -35 -141 -66 -124 -54 -221 -108 -315 -176 l-43 -32 53
-55 c81 -82 75 -82 181 -18 110 66 256 138 267 131 5 -3 8 -83 9 -177 0 -131
3 -174 13 -184 15 -14 132 -55 158 -55 14 0 16 27 13 249 l-3 250 69 20 c60
18 281 71 296 71 3 0 6 43 6 95 0 94 0 95 -22 91 -13 -3 -70 -15 -128 -26 -58
-11 -127 -27 -154 -35 -27 -8 -53 -15 -58 -15 -4 0 -7 192 -6 427 l3 427 170
54 c94 30 176 55 183 58 8 2 12 29 12 89 0 98 3 96 -98 66 -55 -17 -64 -18
-69 -4 -11 28 4 219 20 249 21 40 65 80 110 99 l37 15 0 360 0 360 -25 -2
c-16 -2 -28 -11 -34 -28z"/>

<path fill="#114b5f" d="M14035 10644 c-44 -23 -61 -41 -87 -92 -21 -45 -22 -58 -23 -267 0
-214 1 -220 20 -219 11 1 46 5 78 9 l57 6 0 290 c0 159 -3 289 -7 289 -5 0
-21 -7 -38 -16z"/>

<!-- Right Tower (Orange) -->
<g transform="translate(28160, 0) scale(-1, 1)" fill="#d38c28">
<path d="M14021 12030 c-8 -22 -20 -218 -21 -337 0 -37 -3 -42 -28 -48 -46
-10 -90 -42 -118 -87 -23 -36 -28 -57 -32 -128 -3 -64 -9 -90 -23 -105 -45
-50 -60 -110 -66 -267 -6 -147 -7 -150 -30 -159 -13 -5 -33 -9 -44 -9 -18 0
-20 4 -13 45 l6 45 -61 0 -61 0 -1 -47 c-1 -27 -1 -292 0 -589 0 -419 -2 -544
-12 -552 -6 -5 -70 -35 -141 -66 -124 -54 -221 -108 -315 -176 l-43 -32 53
-55 c81 -82 75 -82 181 -18 110 66 256 138 267 131 5 -3 8 -83 9 -177 0 -131
3 -174 13 -184 15 -14 132 -55 158 -55 14 0 16 27 13 249 l-3 250 69 20 c60
18 281 71 296 71 3 0 6 43 6 95 0 94 0 95 -22 91 -13 -3 -70 -15 -128 -26 -58
-11 -127 -27 -154 -35 -27 -8 -53 -15 -58 -15 -4 0 -7 192 -6 427 l3 427 170
54 c94 30 176 55 183 58 8 2 12 29 12 89 0 98 3 96 -98 66 -55 -17 -64 -18
-69 -4 -11 28 4 219 20 249 21 40 65 80 110 99 l37 15 0 360 0 360 -25 -2
c-16 -2 -28 -11 -34 -28z"/>
<path d="M14035 10644 c-44 -23 -61 -41 -87 -92 -21 -45 -22 -58 -23 -267 0
-214 1 -220 20 -219 11 1 46 5 78 9 l57 6 0 290 c0 159 -3 289 -7 289 -5 0
-21 -7 -38 -16z"/>
</g>

<!-- Book (Teal) -->
<path fill="#114b5f" d="M16107 9792 c-25 -59 -49 -120 -52 -135 -7 -27 -12 -19 350 -552 45
-66 119 -176 165 -245 46 -69 164 -241 262 -382 98 -142 178 -260 178 -263 0
-3 -17 -5 -37 -5 -53 0 -360 -37 -463 -56 -347 -62 -633 -142 -940 -261 -150
-59 -465 -214 -608 -300 -288 -173 -588 -437 -817 -718 -32 -38 -58 -71 -60
-73 -1 -1 -36 39 -77 90 -501 623 -1251 1044 -2203 1237 -150 30 -293 51 -520
74 -71 7 -119 16 -117 22 2 6 92 138 199 295 479 699 753 1105 753 1115 0 17
-102 255 -110 255 -4 0 -12 -10 -17 -22 -6 -13 -82 -125 -169 -250 -88 -125
-195 -280 -239 -345 -45 -65 -162 -235 -261 -378 -322 -464 -614 -896 -614
-908 0 -3 80 -7 178 -10 336 -10 774 -61 1041 -121 445 -101 944 -315 1276
-549 98 -69 315 -237 315 -244 0 -2 -15 3 -32 11 -336 146 -522 214 -772 285
-433 123 -859 180 -1338 181 -153 0 -278 2 -278 4 0 3 32 63 70 135 39 71 70
132 70 135 0 3 -57 6 -127 6 l-128 0 -95 -143 c-140 -211 -262 -400 -267 -414
-3 -8 0 -11 8 -8 39 13 554 35 797 34 514 -3 879 -56 1340 -196 215 -64 601
-225 762 -315 131 -75 284 -168 397 -244 68 -46 132 -85 143 -89 15 -5 51 14
138 71 485 320 924 516 1472 654 136 34 284 61 505 91 223 30 733 37 1080 15
143 -10 266 -19 273 -21 6 -3 12 -2 12 0 0 3 -83 132 -185 288 l-184 282 -131
-3 c-71 -2 -130 -7 -130 -12 0 -4 34 -65 75 -134 41 -69 75 -128 75 -131 0 -3
-111 -5 -247 -5 -308 0 -482 -12 -738 -51 -432 -65 -779 -161 -1200 -331 -82
-33 -167 -69 -188 -80 -22 -11 -41 -17 -44 -15 -7 8 205 174 322 251 483 320
1127 551 1717 615 234 26 546 51 670 54 l97 2 -73 115 c-70 109 -351 525 -493
730 -36 52 -134 194 -218 315 -83 121 -205 297 -270 390 -66 94 -149 214 -186
268 l-67 98 -45 -109z"/>

<!-- Left Bar/Handle (Teal) -->
<path fill="#114b5f" d="M12870 8784 c0 -8 143 -193 289 -374 163 -201 308 -366 451 -514 142
-146 448 -436 461 -436 5 0 9 68 9 164 l0 165 -167 168 c-150 151 -270 281
-470 509 -35 39 -78 77 -95 84 -56 22 -350 167 -415 204 -35 20 -63 33 -63 30z"/>

<!-- Right Bar/Handle (Orange) -->
<path transform="translate(28220, 0) scale(-1, 1)" fill="#d38c28" d="M12870 8784 c0 -8 143 -193 289 -374 163 -201 308 -366 451 -514 142
-146 448 -436 461 -436 5 0 9 68 9 164 l0 165 -167 168 c-150 151 -270 281
-470 509 -35 39 -78 77 -95 84 -56 22 -350 167 -415 204 -35 20 -63 33 -63 30z"/>

</g>
</svg>
